<svg width="30" height="25" viewBox="0 0 30 25" xmlns="http://www.w3.org/2000/svg"><g clip-path="url(#a)"><path d="M26.25 5.469H3.75c-.512 0-.937-.354-.937-.781s.425-.781.937-.781h22.5c.512 0 .937.354.937.781s-.425.781-.937.781m0 5.208H3.75c-.512 0-.937-.354-.937-.781s.425-.781.937-.781h22.5c.512 0 .937.354.937.781s-.425.781-.937.781m0 5.208H3.75c-.512 0-.937-.354-.937-.781s.425-.781.937-.781h22.5c.512 0 .937.354.937.781s-.425.781-.937.781m0 5.209H3.75c-.512 0-.937-.354-.937-.781s.425-.781.937-.781h22.5c.512 0 .937.354.937.781s-.425.781-.937.781"/></g><defs><clipPath id="a"><path fill="#fff" d="M0 0h30v25H0z"/></clipPath></defs></svg>