<svg width="20" height="25" viewBox="0 0 20 25" fill="#000000" xmlns="http://www.w3.org/2000/svg">
  <g clip-path="url(#clip0_4418_6697)">
    <path d="M17.5 5.469H2.5c-0.342 0 -0.625 -0.354 -0.625 -0.781s0.283 -0.781 0.625 -0.781h15c0.342 0 0.625 0.354 0.625 0.781s-0.283 0.781 -0.625 0.781"/>
    <path d="M17.5 10.677H2.5c-0.342 0 -0.625 -0.354 -0.625 -0.781s0.283 -0.781 0.625 -0.781h15c0.342 0 0.625 0.354 0.625 0.781s-0.283 0.781 -0.625 0.781"/>
    <path d="M17.5 15.885H2.5c-0.342 0 -0.625 -0.354 -0.625 -0.781s0.283 -0.781 0.625 -0.781h15c0.342 0 0.625 0.354 0.625 0.781s-0.283 0.781 -0.625 0.781"/>
    <path d="M17.5 21.094H2.5c-0.342 0 -0.625 -0.354 -0.625 -0.781s0.283 -0.781 0.625 -0.781h15c0.342 0 0.625 0.354 0.625 0.781s-0.283 0.781 -0.625 0.781"/>
  </g>
  <defs>
    <clipPath id="clip0_4418_6697">
      <path width="19.2" height="24" fill="white" d="M0 0H20V25H0V0z"/>
    </clipPath>
  </defs>
</svg>
